<svg version="1.1" viewBox="0.0 0.0 575.6719160104986 285.0472440944882" fill="none" stroke="none" stroke-linecap="square" stroke-miterlimit="10" xmlns:xlink="http://www.w3.org/1999/xlink" xmlns="http://www.w3.org/2000/svg"><clipPath id="p.0"><path d="m0 0l575.67194 0l0 285.04724l-575.67194 0l0 -285.04724z" clip-rule="nonzero"/></clipPath><g clip-path="url(#p.0)"><path fill="#000000" fill-opacity="0.0" d="m0 0l575.67194 0l0 285.04724l-575.67194 0z" fill-rule="evenodd"/><path fill="#000000" fill-opacity="0.0" d="m185.32298 -9.000004l192.00002 0l0 80.0l-192.00002 0z" fill-rule="evenodd"/><path fill="#ff0000" d="m246.47728 45.399994l0 -28.640625l12.156265 0q4.59375 0 6.671875 0.78125q2.078125 0.765625 3.328125 2.75q1.25 1.96875 1.25 4.5q0 3.21875 -1.890625 5.328125q-1.890625 2.09375 -5.65625 2.640625q1.875 1.09375 3.09375 2.40625q1.21875 1.3125 3.28125 4.640625l3.5 5.59375l-6.90625 0l-4.1875 -6.234375q-2.21875 -3.34375 -3.046875 -4.203125q-0.8125 -0.875 -1.734375 -1.1875q-0.92189026 -0.328125 -2.9062653 -0.328125l-1.171875 0l0 11.953125l-5.78125 0zm5.78125 -16.53125l4.2656403 0q4.171875 0 5.203125 -0.34375q1.03125 -0.359375 1.609375 -1.21875q0.59375 -0.859375 0.59375 -2.140625q0 -1.453125 -0.78125 -2.328125q-0.765625 -0.890625 -2.171875 -1.125q-0.703125 -0.109375 -4.21875 -0.109375l-4.5000153 0l0 7.265625zm35.05861 9.921875l5.46875 0.921875q-1.0625 3.015625 -3.34375 4.59375q-2.265625 1.5625 -5.6875 1.5625q-5.40625 0 -8.0 -3.53125q-2.0625 -2.84375 -2.0625 -7.15625q0 -5.15625 2.6875 -8.078125q2.703125 -2.921875 6.828125 -2.921875q4.625 0 7.296875 3.0625q2.6875 3.0625 2.5625 9.359375l-13.75 0q0.0625 2.453125 1.328125 3.8125q1.28125 1.34375 3.171875 1.34375q1.28125 0 2.15625 -0.703125q0.890625 -0.703125 1.34375 -2.265625zm0.3125 -5.546875q-0.0625 -2.375 -1.234375 -3.609375q-1.171875 -1.25 -2.859375 -1.25q-1.796875 0 -2.96875 1.3125q-1.171875 1.3125 -1.140625 3.546875l8.203125 0zm28.933594 12.15625l-5.09375 0l0 -3.046875q-1.265625 1.78125 -3.0 2.65625q-1.71875 0.859375 -3.484375 0.859375q-3.578125 0 -6.125 -2.875q-2.546875 -2.890625 -2.546875 -8.046875q0 -5.265625 2.484375 -8.015625q2.484375 -2.75 6.265625 -2.75q3.484375 0 6.015625 2.890625l0 -10.3125l5.484375 0l0 28.640625zm-14.640625 -10.828125q0 3.328125 0.921875 4.8125q1.328125 2.140625 3.703125 2.140625q1.890625 0 3.21875 -1.609375q1.328125 -1.609375 1.328125 -4.8125q0 -3.578125 -1.296875 -5.140625q-1.28125 -1.578125 -3.28125 -1.578125q-1.953125 0 -3.28125 1.5625q-1.3125 1.546875 -1.3125 4.625z" fill-rule="nonzero"/><path fill="#000000" fill-opacity="0.0" d="m321.323 159.0l192.0 0l0 80.0l-192.0 0z" fill-rule="evenodd"/><path fill="#38761d" d="m375.75464 202.86874l0 -4.828125l12.453125 0l0 11.40625q-1.8125 1.765625 -5.265625 3.109375q-3.4375 1.328125 -6.96875 1.328125q-4.5 0 -7.84375 -1.875q-3.328125 -1.890625 -5.015625 -5.390625q-1.671875 -3.515625 -1.671875 -7.640625q0 -4.46875 1.875 -7.9375q1.875 -3.484375 5.484375 -5.34375q2.75 -1.421875 6.859375 -1.421875q5.328125 0 8.328125 2.234375q3.0 2.234375 3.859375 6.1875l-5.75 1.078125q-0.609375 -2.109375 -2.28125 -3.328125q-1.65625 -1.234375 -4.15625 -1.234375q-3.796875 0 -6.03125 2.40625q-2.234375 2.40625 -2.234375 7.125q0 5.109375 2.265625 7.65625q2.265625 2.546875 5.9375 2.546875q1.8125 0 3.640625 -0.703125q1.828125 -0.71875 3.140625 -1.734375l0 -3.640625l-6.625 0zm23.003906 10.53125l-5.484375 0l0 -20.75l5.09375 0l0 2.953125q1.3125 -2.09375 2.359375 -2.75q1.046875 -0.671875 2.375 -0.671875q1.875 0 3.609375 1.046875l-1.703125 4.78125q-1.390625 -0.90625 -2.578125 -0.90625q-1.15625 0 -1.953125 0.640625q-0.796875 0.640625 -1.265625 2.296875q-0.453125 1.65625 -0.453125 6.953125l0 6.40625zm22.332031 -6.609375l5.46875 0.921875q-1.0625 3.015625 -3.34375 4.59375q-2.265625 1.5625 -5.6875 1.5625q-5.40625 0 -8.0 -3.53125q-2.0625 -2.84375 -2.0625 -7.15625q0 -5.15625 2.6875 -8.078125q2.703125 -2.921875 6.828125 -2.921875q4.625 0 7.296875 3.0625q2.6875 3.0625 2.5625 9.359375l-13.75 0q0.0625 2.453125 1.328125 3.8125q1.28125 1.34375 3.171875 1.34375q1.28125 0 2.15625 -0.703125q0.890625 -0.703125 1.34375 -2.265625zm0.3125 -5.546875q-0.0625 -2.375 -1.234375 -3.609375q-1.171875 -1.25 -2.859375 -1.25q-1.796875 0 -2.96875 1.3125q-1.171875 1.3125 -1.140625 3.546875l8.203125 0zm21.933594 5.546875l5.46875 0.921875q-1.0625 3.015625 -3.34375 4.59375q-2.265625 1.5625 -5.6875 1.5625q-5.40625 0 -8.0 -3.53125q-2.0625 -2.84375 -2.0625 -7.15625q0 -5.15625 2.6875 -8.078125q2.703125 -2.921875 6.828125 -2.921875q4.625 0 7.296875 3.0625q2.6875 3.0625 2.5625 9.359375l-13.75 0q0.0625 2.453125 1.328125 3.8125q1.28125 1.34375 3.171875 1.34375q1.28125 0 2.15625 -0.703125q0.890625 -0.703125 1.34375 -2.265625zm0.3125 -5.546875q-0.0625 -2.375 -1.234375 -3.609375q-1.171875 -1.25 -2.859375 -1.25q-1.796875 0 -2.96875 1.3125q-1.171875 1.3125 -1.140625 3.546875l8.203125 0zm28.777344 12.15625l-5.484375 0l0 -10.59375q0 -3.359375 -0.359375 -4.34375q-0.34375 -0.984375 -1.140625 -1.53125q-0.78125 -0.546875 -1.890625 -0.546875q-1.4375 0 -2.578125 0.78125q-1.125 0.78125 -1.546875 2.078125q-0.40625 1.28125 -0.40625 4.765625l0 9.390625l-5.5 0l0 -20.75l5.109375 0l0 3.046875q2.703125 -3.515625 6.828125 -3.515625q1.8125 0 3.3125 0.65625q1.515625 0.65625 2.28125 1.671875q0.78125 1.015625 1.078125 2.3125q0.296875 1.28125 0.296875 3.6875l0 12.890625z" fill-rule="nonzero"/><path fill="#000000" fill-opacity="0.0" d="m46.298546 159.0l192.0 0l0 80.0l-192.0 0z" fill-rule="evenodd"/><path fill="#0000ff" d="m64.10323 213.4l0 -28.640625l12.15625 0q4.59375 0 6.671875 0.78125q2.078125 0.765625 3.328125 2.75q1.25 1.96875 1.25 4.5q0 3.21875 -1.890625 5.328125q-1.890625 2.09375 -5.65625 2.640625q1.875 1.09375 3.09375 2.40625q1.21875 1.3125 3.28125 4.640625l3.5 5.59375l-6.90625 0l-4.1875 -6.234375q-2.21875 -3.34375 -3.046875 -4.203125q-0.8125 -0.875 -1.734375 -1.1875q-0.921875 -0.328125 -2.90625 -0.328125l-1.171875 0l0 11.953125l-5.78125 0zm5.78125 -16.53125l4.265625 0q4.171875 0 5.203125 -0.34375q1.03125 -0.359375 1.609375 -1.21875q0.59375 -0.859375 0.59375 -2.140625q0 -1.453125 -0.78125 -2.328125q-0.765625 -0.890625 -2.171875 -1.125q-0.703125 -0.109375 -4.21875 -0.109375l-4.5 0l0 7.265625zm35.058594 9.921875l5.46875 0.921875q-1.0625 3.015625 -3.34375 4.59375q-2.265625 1.5625 -5.6875 1.5625q-5.40625 0 -8.0 -3.53125q-2.0625 -2.84375 -2.0625 -7.15625q0 -5.15625 2.6875 -8.078125q2.703125 -2.921875 6.828125 -2.921875q4.625 0 7.296875 3.0625q2.6875 3.0625 2.5625 9.359375l-13.75 0q0.0625 2.453125 1.328125 3.8125q1.28125 1.34375 3.171875 1.34375q1.28125 0 2.15625 -0.703125q0.890625 -0.703125 1.34375 -2.265625zm0.3125 -5.546875q-0.0625 -2.375 -1.234375 -3.609375q-1.171875 -1.25 -2.859375 -1.25q-1.796875 0 -2.96875 1.3125q-1.171875 1.3125 -1.140625 3.546875l8.203125 0zm7.5117188 -8.59375l3.046875 0l0 -1.5625q0 -2.609375 0.546875 -3.890625q0.5625 -1.296875 2.0625 -2.109375q1.5 -0.8125 3.78125 -0.8125q2.34375 0 4.59375 0.703125l-0.75 3.828125q-1.3125 -0.3125 -2.515625 -0.3125q-1.1875 0 -1.71875 0.5625q-0.515625 0.546875 -0.515625 2.140625l0 1.453125l4.109375 0l0 4.328125l-4.109375 0l0 16.421875l-5.484375 0l0 -16.421875l-3.046875 0l0 -4.328125zm19.82032 6.328125l-4.9687576 -0.890625q0.8281326 -3.015625 2.8750076 -4.453125q2.0625 -1.453125 6.109375 -1.453125q3.671875 0 5.46875 0.875q1.796875 0.875 2.515625 2.21875q0.734375 1.328125 0.734375 4.90625l-0.046875 6.40625q0 2.734375 0.25 4.03125q0.265625 1.296875 1.0 2.78125l-5.4375 0q-0.21875 -0.546875 -0.53125 -1.625q-0.125 -0.484375 -0.1875 -0.640625q-1.40625 1.359375 -3.015625 2.046875q-1.59375 0.6875 -3.40625 0.6875q-3.203125 0 -5.0625 -1.734375q-1.8437576 -1.75 -1.8437576 -4.40625q0 -1.75 0.84375 -3.125q0.8437576 -1.375 2.3593826 -2.109375q1.515625 -0.734375 4.359375 -1.28125q3.84375 -0.71875 5.328125 -1.34375l0 -0.546875q0 -1.59375 -0.78125 -2.265625q-0.78125 -0.671875 -2.9375 -0.671875q-1.46875 0 -2.296875 0.578125q-0.8125 0.578125 -1.328125 2.015625zm7.34375 4.453125q-1.046875 0.359375 -3.34375 0.84375q-2.28125 0.484375 -2.984375 0.953125q-1.0625 0.765625 -1.0625 1.9375q0 1.15625 0.859375 2.0q0.859375 0.828125 2.1875 0.828125q1.484375 0 2.828125 -0.96875q1.0 -0.75 1.3125 -1.8125q0.203125 -0.703125 0.203125 -2.6875l0 -1.09375zm28.886719 -4.640625l-5.40625 0.96875q-0.265625 -1.609375 -1.234375 -2.421875q-0.96875 -0.828125 -2.515625 -0.828125q-2.046875 0 -3.265625 1.421875q-1.21875 1.40625 -1.21875 4.71875q0 3.703125 1.234375 5.234375q1.234375 1.515625 3.328125 1.515625q1.5625 0 2.5625 -0.890625q1.0 -0.890625 1.40625 -3.0625l5.390625 0.921875q-0.84375 3.703125 -3.234375 5.609375q-2.375 1.890625 -6.375 1.890625q-4.546875 0 -7.265625 -2.875q-2.703125 -2.875 -2.703125 -7.953125q0 -5.125 2.71875 -7.984375q2.71875 -2.875 7.34375 -2.875q3.796875 0 6.03125 1.640625q2.234375 1.625 3.203125 4.96875zm13.683594 -6.140625l0 4.375l-3.75 0l0 8.359375q0 2.546875 0.09375 2.96875q0.109375 0.421875 0.484375 0.703125q0.390625 0.265625 0.9375 0.265625q0.765625 0 2.203125 -0.53125l0.46875 4.25q-1.90625 0.828125 -4.328125 0.828125q-1.484375 0 -2.6875 -0.5q-1.1875 -0.5 -1.75 -1.28125q-0.546875 -0.796875 -0.765625 -2.140625q-0.171875 -0.96875 -0.171875 -3.875l0 -9.046875l-2.515625 0l0 -4.375l2.515625 0l0 -4.109375l5.515625 -3.203125l0 7.3125l3.75 0zm2.5390625 10.078125q0 -2.734375 1.34375 -5.28125q1.34375 -2.5625 3.8125 -3.90625q2.46875 -1.359375 5.515625 -1.359375q4.71875 0 7.71875 3.0625q3.015625 3.0625 3.015625 7.71875q0 4.71875 -3.046875 7.8125q-3.03125 3.09375 -7.640625 3.09375q-2.859375 0 -5.453125 -1.28125q-2.578125 -1.296875 -3.921875 -3.78125q-1.34375 -2.5 -1.34375 -6.078125zm5.625 0.296875q0 3.09375 1.453125 4.734375q1.46875 1.640625 3.625 1.640625q2.140625 0 3.59375 -1.640625q1.453125 -1.640625 1.453125 -4.765625q0 -3.046875 -1.453125 -4.6875q-1.453125 -1.640625 -3.59375 -1.640625q-2.15625 0 -3.625 1.640625q-1.453125 1.640625 -1.453125 4.71875zm25.324219 10.375l-5.484375 0l0 -20.75l5.09375 0l0 2.953125q1.3125 -2.09375 2.359375 -2.75q1.046875 -0.671875 2.375 -0.671875q1.875 0 3.609375 1.046875l-1.703125 4.78125q-1.390625 -0.90625 -2.578125 -0.90625q-1.15625 0 -1.953125 0.640625q-0.796875 0.640625 -1.265625 2.296875q-0.453125 1.65625 -0.453125 6.953125l0 6.40625z" fill-rule="nonzero"/><path fill="#000000" fill-opacity="0.0" d="m377.323 30.999996c80.499756 0 143.99951 42.000004 160.99951 84.0c17.0 42.0 -12.499756 84.0 -24.999512 84.0" fill-rule="evenodd"/><path stroke="#000000" stroke-width="8.0" stroke-linejoin="round" stroke-linecap="butt" d="m377.323 30.999998c80.499756 0 143.99951 41.999992 160.99951 84.0c4.25 10.5 5.59375 21.0 5.0234985 30.84375c-0.14257812 2.4609375 -0.40478516 4.8808594 -0.77111816 7.2495117c-0.1831665 1.1843262 -0.39233398 2.355835 -0.6256714 3.5132446c-0.11663818 0.57870483 -0.23925781 1.1538849 -0.36773682 1.7253876c-0.064208984 0.28575134 -0.12988281 0.57055664 -0.19696045 0.8544464l-0.17956543 0.74194336" fill-rule="evenodd"/><path fill="#000000" stroke="#000000" stroke-width="8.0" stroke-linecap="butt" d="m530.4489 152.25272l-10.3324585 37.227448l31.844482 -21.876297z" fill-rule="evenodd"/><path fill="#000000" fill-opacity="0.0" d="m417.323 239.0c0 12.5 -68.75592 24.992126 -137.51181 25.0c-68.75592 0.007873535 -137.51183 -12.468506 -137.51183 -24.937012" fill-rule="evenodd"/><path stroke="#000000" stroke-width="8.0" stroke-linejoin="round" stroke-linecap="butt" d="m417.323 239.0c0 12.5 -68.75589 24.992126 -137.51181 25.0c-17.188965 0.0019836426 -34.37796 -0.77633667 -50.492615 -2.1397095c-8.057343 -0.68170166 -15.846085 -1.5096436 -23.23198 -2.4594421c-3.6929474 -0.47494507 -7.2851715 -0.98031616 -10.759903 -1.5131226c-1.7373657 -0.26638794 -3.4453583 -0.53964233 -5.1218567 -0.81936646c-0.83825684 -0.13986206 -1.6686401 -0.28134155 -2.4909058 -0.42437744l-0.7017822 -0.12338257" fill-rule="evenodd"/><path fill="#000000" stroke="#000000" stroke-width="8.0" stroke-linecap="butt" d="m191.81802 244.21165l-38.624374 -0.8951111l29.012619 25.512955z" fill-rule="evenodd"/><path fill="#000000" fill-opacity="0.0" d="m46.298546 199.0c-12.500309 0 -42.37857 -42.0 -25.000616 -84.0c17.37795 -42.0 82.01212 -84.0 164.02425 -84.0" fill-rule="evenodd"/><path stroke="#000000" stroke-width="8.0" stroke-linejoin="round" stroke-linecap="butt" d="m46.298546 199.0c-12.500309 0 -42.37857 -42.0 -25.000618 -84.0c8.688976 -21.0 29.192009 -42.000008 57.774315 -57.750004c14.291138 -7.875 30.602112 -14.4375 48.46605 -19.03125c2.2330093 -0.57421875 4.4902573 -1.1176758 6.7708664 -1.6290894c0.57014465 -0.1278534 1.1417694 -0.25370407 1.7148285 -0.37752914l1.5473175 -0.3280487" fill-rule="evenodd"/><path fill="#000000" stroke="#000000" stroke-width="8.0" stroke-linecap="butt" d="m138.91585 49.029358l34.77182 -16.839352l-37.46089 -9.451204z" fill-rule="evenodd"/></g></svg>